<?xml version="1.0" encoding="utf-8"?>
<!-- Generator: Adobe Illustrator 25.2.1, SVG Export Plug-In . SVG Version: 6.00 Build 0)  -->
<svg version="1.1" id="レイヤー_1" focusable="false"
	 xmlns="http://www.w3.org/2000/svg" xmlns:xlink="http://www.w3.org/1999/xlink" x="0px" y="0px" viewBox="0 0 640 512"
	 style="enable-background:new 0 0 640 512;" xml:space="preserve">
<style type="text/css">
	.st0{fill:#6F8086;}
</style>
<path class="st0" d="M629.7,343.6L529,444.3c-9.4,9.4-24.6,9.4-33.9,0L394.3,343.6c-9.4-9.4-9.4-24.6,0-33.9l10.8-10.8
	c9.6-9.6,25.1-9.3,34.4,0.5l40.4,42.8V160H292.5c-6.4,0-12.5-2.5-17-7l-16-16c-15.1-15.1-4.4-41,17-41H520c13.3,0,24,10.7,24,24
	v222.1l40.4-42.8c9.3-9.8,24.9-10.1,34.4-0.5l10.8,10.8C639,319,639,334.2,629.7,343.6L629.7,343.6z M364.5,359
	c-4.5-4.5-10.6-7-17-7H160V169.9l40.4,42.8c9.3,9.8,24.9,10.1,34.4,0.5l10.8-10.8c9.4-9.4,9.4-24.6,0-33.9L145,67.7
	c-9.4-9.4-24.6-9.4-33.9,0L10.3,168.4c-9.4,9.4-9.4,24.6,0,33.9l10.8,10.8c9.6,9.6,25.1,9.3,34.4-0.5L96,169.9V392
	c0,13.3,10.7,24,24,24h243.5c21.4,0,32.1-25.9,17-41L364.5,359L364.5,359z"/>
</svg>
